<svg width="800" height="520" viewBox="0 0 800 520" fill="none" xmlns="http://www.w3.org/2000/svg">
  <rect x="40" y="60" width="720" height="400" rx="36" fill="#F5F5F4" stroke="#E7E5E4" stroke-width="2"/>
  <rect x="90" y="120" width="360" height="44" rx="16" fill="#FFFFFF" stroke="#E7E5E4" stroke-width="2"/>
  <rect x="90" y="182" width="520" height="24" rx="12" fill="#FFFFFF" stroke="#E7E5E4" stroke-width="2"/>
  <rect x="90" y="222" width="470" height="24" rx="12" fill="#FFFFFF" stroke="#E7E5E4" stroke-width="2"/>
  <rect x="90" y="262" width="420" height="24" rx="12" fill="#FFFFFF" stroke="#E7E5E4" stroke-width="2"/>
  <rect x="90" y="322" width="210" height="56" rx="18" fill="#60A5FA"/>
  <rect x="320" y="322" width="210" height="56" rx="18" fill="#FFFFFF" stroke="#E7E5E4" stroke-width="2"/>
  <circle cx="620" cy="250" r="90" fill="#EFF6FF" stroke="#DBEAFE" stroke-width="2"/>
  <path d="M570 250C595 220 625 220 650 250C625 280 595 280 570 250Z" fill="#60A5FA" opacity="0.9"/>
  <path d="M585 280C615 255 635 255 655 280" stroke="#2563EB" stroke-width="6" stroke-linecap="round"/>
</svg>
